<mxfile host="app.diagrams.net" agent="Mozilla/5.0 (X11; Ubuntu; Linux x86_64; rv:128.0) Gecko/20100101 Firefox/128.0" version="24.7.6">
  <diagram name="Page-1" id="1dwwyshaRhwu5irAIWIq">
    <mxGraphModel dx="1451" dy="818" grid="1" gridSize="10" guides="1" tooltips="1" connect="1" arrows="1" fold="1" page="1" pageScale="1" pageWidth="75" pageHeight="85" math="1" shadow="0">
      <root>
        <mxCell id="0" />
        <mxCell id="1" parent="0" />
        <mxCell id="bW3KZBtwqYJ7yQp_u8pl-152" value="" style="rounded=0;whiteSpace=wrap;html=1;fillColor=#E6E7E8;fontColor=#333333;strokeColor=#666666;" vertex="1" parent="1">
          <mxGeometry x="-525" y="-300" width="685" height="360" as="geometry" />
        </mxCell>
        <mxCell id="bW3KZBtwqYJ7yQp_u8pl-4" value="" style="ellipse;whiteSpace=wrap;html=1;aspect=fixed;fillColor=#c4c6c8;" vertex="1" parent="1">
          <mxGeometry x="-60" y="-20.5" width="40" height="40" as="geometry" />
        </mxCell>
        <mxCell id="bW3KZBtwqYJ7yQp_u8pl-5" value="" style="ellipse;whiteSpace=wrap;html=1;aspect=fixed;fillColor=#c4c6c8;opacity=40;" vertex="1" parent="1">
          <mxGeometry x="-60" y="-99.5" width="40" height="40" as="geometry" />
        </mxCell>
        <mxCell id="bW3KZBtwqYJ7yQp_u8pl-6" value="" style="ellipse;whiteSpace=wrap;html=1;aspect=fixed;fillColor=#c4c6c8;" vertex="1" parent="1">
          <mxGeometry x="-60" y="-179.5" width="40" height="40" as="geometry" />
        </mxCell>
        <mxCell id="bW3KZBtwqYJ7yQp_u8pl-7" value="" style="ellipse;whiteSpace=wrap;html=1;aspect=fixed;fillColor=#c4c6c8;" vertex="1" parent="1">
          <mxGeometry x="-60" y="-259.5" width="40" height="40" as="geometry" />
        </mxCell>
        <mxCell id="bW3KZBtwqYJ7yQp_u8pl-8" value="" style="ellipse;whiteSpace=wrap;html=1;aspect=fixed;fillColor=#c4c6c8;opacity=40;" vertex="1" parent="1">
          <mxGeometry x="-140" width="40" height="40" as="geometry" />
        </mxCell>
        <mxCell id="bW3KZBtwqYJ7yQp_u8pl-9" value="" style="ellipse;whiteSpace=wrap;html=1;aspect=fixed;fillColor=#c4c6c8;" vertex="1" parent="1">
          <mxGeometry x="-140" y="-70" width="40" height="40" as="geometry" />
        </mxCell>
        <mxCell id="bW3KZBtwqYJ7yQp_u8pl-10" value="" style="ellipse;whiteSpace=wrap;html=1;aspect=fixed;fillColor=#c4c6c8;" vertex="1" parent="1">
          <mxGeometry x="-140" y="-210" width="40" height="40" as="geometry" />
        </mxCell>
        <mxCell id="bW3KZBtwqYJ7yQp_u8pl-11" value="" style="ellipse;whiteSpace=wrap;html=1;aspect=fixed;fillColor=#c4c6c8;opacity=40;" vertex="1" parent="1">
          <mxGeometry x="20" y="-20.5" width="40" height="40" as="geometry" />
        </mxCell>
        <mxCell id="bW3KZBtwqYJ7yQp_u8pl-12" value="" style="ellipse;whiteSpace=wrap;html=1;aspect=fixed;fillColor=#c4c6c8;" vertex="1" parent="1">
          <mxGeometry x="20" y="-99.5" width="40" height="40" as="geometry" />
        </mxCell>
        <mxCell id="bW3KZBtwqYJ7yQp_u8pl-13" value="" style="ellipse;whiteSpace=wrap;html=1;aspect=fixed;fillColor=#c4c6c8;" vertex="1" parent="1">
          <mxGeometry x="20" y="-179.5" width="40" height="40" as="geometry" />
        </mxCell>
        <mxCell id="bW3KZBtwqYJ7yQp_u8pl-14" value="" style="ellipse;whiteSpace=wrap;html=1;aspect=fixed;fillColor=#c4c6c8;opacity=40;" vertex="1" parent="1">
          <mxGeometry x="20" y="-259.5" width="40" height="40" as="geometry" />
        </mxCell>
        <mxCell id="bW3KZBtwqYJ7yQp_u8pl-15" value="" style="ellipse;whiteSpace=wrap;html=1;aspect=fixed;fillColor=#c4c6c8;" vertex="1" parent="1">
          <mxGeometry x="110" y="-220.5" width="40" height="40" as="geometry" />
        </mxCell>
        <mxCell id="bW3KZBtwqYJ7yQp_u8pl-16" value="" style="ellipse;whiteSpace=wrap;html=1;aspect=fixed;fillColor=#c4c6c8;opacity=40;" vertex="1" parent="1">
          <mxGeometry x="110" y="-140.5" width="40" height="40" as="geometry" />
        </mxCell>
        <mxCell id="bW3KZBtwqYJ7yQp_u8pl-17" value="" style="endArrow=none;html=1;rounded=0;exitX=1;exitY=0.5;exitDx=0;exitDy=0;entryX=0;entryY=0.5;entryDx=0;entryDy=0;endFill=0;" edge="1" parent="1" source="bW3KZBtwqYJ7yQp_u8pl-10" target="bW3KZBtwqYJ7yQp_u8pl-7">
          <mxGeometry width="50" height="50" relative="1" as="geometry">
            <mxPoint x="-100" y="-221" as="sourcePoint" />
            <mxPoint x="-50" y="-271" as="targetPoint" />
          </mxGeometry>
        </mxCell>
        <mxCell id="bW3KZBtwqYJ7yQp_u8pl-18" value="" style="endArrow=none;html=1;rounded=0;exitX=1;exitY=0.5;exitDx=0;exitDy=0;entryX=0;entryY=0.5;entryDx=0;entryDy=0;endFill=0;" edge="1" parent="1" source="bW3KZBtwqYJ7yQp_u8pl-9" target="bW3KZBtwqYJ7yQp_u8pl-7">
          <mxGeometry width="50" height="50" relative="1" as="geometry">
            <mxPoint x="-100" y="-151" as="sourcePoint" />
            <mxPoint x="-80" y="-231" as="targetPoint" />
          </mxGeometry>
        </mxCell>
        <mxCell id="bW3KZBtwqYJ7yQp_u8pl-20" value="" style="endArrow=none;html=1;rounded=0;entryX=0;entryY=0.5;entryDx=0;entryDy=0;exitX=1;exitY=0.5;exitDx=0;exitDy=0;endFill=0;" edge="1" parent="1" source="bW3KZBtwqYJ7yQp_u8pl-10" target="bW3KZBtwqYJ7yQp_u8pl-6">
          <mxGeometry width="50" height="50" relative="1" as="geometry">
            <mxPoint x="-50" y="-121" as="sourcePoint" />
            <mxPoint y="-171" as="targetPoint" />
          </mxGeometry>
        </mxCell>
        <mxCell id="bW3KZBtwqYJ7yQp_u8pl-21" value="" style="endArrow=none;html=1;rounded=0;exitX=1;exitY=0.5;exitDx=0;exitDy=0;entryX=0;entryY=0.5;entryDx=0;entryDy=0;endFill=0;" edge="1" parent="1" source="bW3KZBtwqYJ7yQp_u8pl-9" target="bW3KZBtwqYJ7yQp_u8pl-6">
          <mxGeometry width="50" height="50" relative="1" as="geometry">
            <mxPoint x="-100" y="-141" as="sourcePoint" />
            <mxPoint x="-60" y="-181" as="targetPoint" />
          </mxGeometry>
        </mxCell>
        <mxCell id="bW3KZBtwqYJ7yQp_u8pl-25" value="" style="endArrow=none;html=1;rounded=0;exitX=1;exitY=0.5;exitDx=0;exitDy=0;entryX=0;entryY=0.5;entryDx=0;entryDy=0;endFill=0;" edge="1" parent="1" source="bW3KZBtwqYJ7yQp_u8pl-10" target="bW3KZBtwqYJ7yQp_u8pl-4">
          <mxGeometry width="50" height="50" relative="1" as="geometry">
            <mxPoint x="-50" y="-221" as="sourcePoint" />
            <mxPoint x="-59.99999999999852" y="-31" as="targetPoint" />
          </mxGeometry>
        </mxCell>
        <mxCell id="bW3KZBtwqYJ7yQp_u8pl-28" value="" style="endArrow=none;html=1;rounded=0;exitX=1;exitY=0.5;exitDx=0;exitDy=0;entryX=0;entryY=0.5;entryDx=0;entryDy=0;endFill=0;" edge="1" parent="1" source="bW3KZBtwqYJ7yQp_u8pl-9" target="bW3KZBtwqYJ7yQp_u8pl-4">
          <mxGeometry width="50" height="50" relative="1" as="geometry">
            <mxPoint y="-131" as="sourcePoint" />
            <mxPoint x="-59.99999999999852" y="-31" as="targetPoint" />
          </mxGeometry>
        </mxCell>
        <mxCell id="bW3KZBtwqYJ7yQp_u8pl-30" value="" style="endArrow=none;html=1;rounded=0;entryX=0;entryY=0.5;entryDx=0;entryDy=0;exitX=1;exitY=0.5;exitDx=0;exitDy=0;" edge="1" parent="1" source="bW3KZBtwqYJ7yQp_u8pl-7" target="bW3KZBtwqYJ7yQp_u8pl-13">
          <mxGeometry width="50" height="50" relative="1" as="geometry">
            <mxPoint x="-10" y="-229.5" as="sourcePoint" />
            <mxPoint x="30" y="-229.5" as="targetPoint" />
          </mxGeometry>
        </mxCell>
        <mxCell id="bW3KZBtwqYJ7yQp_u8pl-31" value="" style="endArrow=none;html=1;rounded=0;entryX=0;entryY=0.5;entryDx=0;entryDy=0;exitX=1;exitY=0.5;exitDx=0;exitDy=0;" edge="1" parent="1" source="bW3KZBtwqYJ7yQp_u8pl-7" target="bW3KZBtwqYJ7yQp_u8pl-12">
          <mxGeometry width="50" height="50" relative="1" as="geometry">
            <mxPoint y="-219.5" as="sourcePoint" />
            <mxPoint x="40" y="-219.5" as="targetPoint" />
          </mxGeometry>
        </mxCell>
        <mxCell id="bW3KZBtwqYJ7yQp_u8pl-34" value="" style="endArrow=none;html=1;rounded=0;exitX=1;exitY=0.5;exitDx=0;exitDy=0;entryX=0;entryY=0.5;entryDx=0;entryDy=0;" edge="1" parent="1" source="bW3KZBtwqYJ7yQp_u8pl-6" target="bW3KZBtwqYJ7yQp_u8pl-13">
          <mxGeometry width="50" height="50" relative="1" as="geometry">
            <mxPoint x="-10" y="-160" as="sourcePoint" />
            <mxPoint y="-159.5" as="targetPoint" />
          </mxGeometry>
        </mxCell>
        <mxCell id="bW3KZBtwqYJ7yQp_u8pl-35" value="" style="endArrow=none;html=1;rounded=0;entryX=0;entryY=0.5;entryDx=0;entryDy=0;exitX=1;exitY=0.5;exitDx=0;exitDy=0;" edge="1" parent="1" source="bW3KZBtwqYJ7yQp_u8pl-6" target="bW3KZBtwqYJ7yQp_u8pl-12">
          <mxGeometry width="50" height="50" relative="1" as="geometry">
            <mxPoint x="-10" y="-140.5" as="sourcePoint" />
            <mxPoint x="30" y="-140.5" as="targetPoint" />
          </mxGeometry>
        </mxCell>
        <mxCell id="bW3KZBtwqYJ7yQp_u8pl-42" value="" style="endArrow=none;html=1;rounded=0;entryX=0;entryY=0.5;entryDx=0;entryDy=0;exitX=1;exitY=0.5;exitDx=0;exitDy=0;" edge="1" parent="1" target="bW3KZBtwqYJ7yQp_u8pl-13">
          <mxGeometry width="50" height="50" relative="1" as="geometry">
            <mxPoint x="-20.00000000000159" y="0.5" as="sourcePoint" />
            <mxPoint x="30" as="targetPoint" />
          </mxGeometry>
        </mxCell>
        <mxCell id="bW3KZBtwqYJ7yQp_u8pl-43" value="" style="endArrow=none;html=1;rounded=0;entryX=0;entryY=0.5;entryDx=0;entryDy=0;exitX=1;exitY=0.5;exitDx=0;exitDy=0;" edge="1" parent="1" target="bW3KZBtwqYJ7yQp_u8pl-12">
          <mxGeometry width="50" height="50" relative="1" as="geometry">
            <mxPoint x="-20.00000000000159" y="0.5" as="sourcePoint" />
            <mxPoint x="30" as="targetPoint" />
          </mxGeometry>
        </mxCell>
        <mxCell id="bW3KZBtwqYJ7yQp_u8pl-47" value="" style="endArrow=none;html=1;rounded=0;entryX=0;entryY=0.5;entryDx=0;entryDy=0;exitX=1;exitY=0.5;exitDx=0;exitDy=0;" edge="1" parent="1" source="bW3KZBtwqYJ7yQp_u8pl-13" target="bW3KZBtwqYJ7yQp_u8pl-15">
          <mxGeometry width="50" height="50" relative="1" as="geometry">
            <mxPoint x="150" y="-120" as="sourcePoint" />
            <mxPoint x="190" y="-120" as="targetPoint" />
          </mxGeometry>
        </mxCell>
        <mxCell id="bW3KZBtwqYJ7yQp_u8pl-49" value="" style="endArrow=none;html=1;rounded=0;entryX=0;entryY=0.5;entryDx=0;entryDy=0;exitX=1;exitY=0.5;exitDx=0;exitDy=0;" edge="1" parent="1" source="bW3KZBtwqYJ7yQp_u8pl-12" target="bW3KZBtwqYJ7yQp_u8pl-15">
          <mxGeometry width="50" height="50" relative="1" as="geometry">
            <mxPoint x="75" y="-40" as="sourcePoint" />
            <mxPoint x="115" y="-40" as="targetPoint" />
          </mxGeometry>
        </mxCell>
        <mxCell id="bW3KZBtwqYJ7yQp_u8pl-62" value="" style="ellipse;whiteSpace=wrap;html=1;aspect=fixed;fillColor=#c4c6c8;" vertex="1" parent="1">
          <mxGeometry x="110" y="-60.5" width="40" height="40" as="geometry" />
        </mxCell>
        <mxCell id="bW3KZBtwqYJ7yQp_u8pl-64" value="" style="endArrow=none;html=1;rounded=0;entryX=1;entryY=0.5;entryDx=0;entryDy=0;exitX=0;exitY=0.5;exitDx=0;exitDy=0;" edge="1" parent="1" source="bW3KZBtwqYJ7yQp_u8pl-62" target="bW3KZBtwqYJ7yQp_u8pl-13">
          <mxGeometry width="50" height="50" relative="1" as="geometry">
            <mxPoint y="-117.5" as="sourcePoint" />
            <mxPoint x="50" y="-167.5" as="targetPoint" />
          </mxGeometry>
        </mxCell>
        <mxCell id="bW3KZBtwqYJ7yQp_u8pl-65" value="" style="endArrow=none;html=1;rounded=0;entryX=1;entryY=0.5;entryDx=0;entryDy=0;exitX=0;exitY=0.5;exitDx=0;exitDy=0;" edge="1" parent="1" source="bW3KZBtwqYJ7yQp_u8pl-62" target="bW3KZBtwqYJ7yQp_u8pl-12">
          <mxGeometry width="50" height="50" relative="1" as="geometry">
            <mxPoint y="-117.5" as="sourcePoint" />
            <mxPoint x="50" y="-167.5" as="targetPoint" />
          </mxGeometry>
        </mxCell>
        <mxCell id="bW3KZBtwqYJ7yQp_u8pl-82" value="" style="ellipse;whiteSpace=wrap;html=1;aspect=fixed;fillColor=#c4c6c8;opacity=40;" vertex="1" parent="1">
          <mxGeometry x="-140" y="-280" width="40" height="40" as="geometry" />
        </mxCell>
        <mxCell id="bW3KZBtwqYJ7yQp_u8pl-83" value="" style="ellipse;whiteSpace=wrap;html=1;aspect=fixed;fillColor=#c4c6c8;opacity=40;" vertex="1" parent="1">
          <mxGeometry x="-140" y="-140" width="40" height="40" as="geometry" />
        </mxCell>
        <mxCell id="bW3KZBtwqYJ7yQp_u8pl-84" value="" style="ellipse;whiteSpace=wrap;html=1;aspect=fixed;fillColor=#c4c6c8;" vertex="1" parent="1">
          <mxGeometry x="-435" y="-21" width="40" height="40" as="geometry" />
        </mxCell>
        <mxCell id="bW3KZBtwqYJ7yQp_u8pl-85" value="" style="ellipse;whiteSpace=wrap;html=1;aspect=fixed;fillColor=#c4c6c8;" vertex="1" parent="1">
          <mxGeometry x="-435" y="-100" width="40" height="40" as="geometry" />
        </mxCell>
        <mxCell id="bW3KZBtwqYJ7yQp_u8pl-86" value="" style="ellipse;whiteSpace=wrap;html=1;aspect=fixed;fillColor=#c4c6c8;" vertex="1" parent="1">
          <mxGeometry x="-435" y="-180" width="40" height="40" as="geometry" />
        </mxCell>
        <mxCell id="bW3KZBtwqYJ7yQp_u8pl-87" value="" style="ellipse;whiteSpace=wrap;html=1;aspect=fixed;fillColor=#c4c6c8;" vertex="1" parent="1">
          <mxGeometry x="-435" y="-260" width="40" height="40" as="geometry" />
        </mxCell>
        <mxCell id="bW3KZBtwqYJ7yQp_u8pl-88" value="" style="ellipse;whiteSpace=wrap;html=1;aspect=fixed;fillColor=#c4c6c8;" vertex="1" parent="1">
          <mxGeometry x="-515" y="-0.5" width="40" height="40" as="geometry" />
        </mxCell>
        <mxCell id="bW3KZBtwqYJ7yQp_u8pl-89" value="" style="ellipse;whiteSpace=wrap;html=1;aspect=fixed;fillColor=#c4c6c8;" vertex="1" parent="1">
          <mxGeometry x="-515" y="-70.5" width="40" height="40" as="geometry" />
        </mxCell>
        <mxCell id="bW3KZBtwqYJ7yQp_u8pl-90" value="" style="ellipse;whiteSpace=wrap;html=1;aspect=fixed;fillColor=#c4c6c8;" vertex="1" parent="1">
          <mxGeometry x="-515" y="-210.5" width="40" height="40" as="geometry" />
        </mxCell>
        <mxCell id="bW3KZBtwqYJ7yQp_u8pl-91" value="" style="ellipse;whiteSpace=wrap;html=1;aspect=fixed;fillColor=#c4c6c8;" vertex="1" parent="1">
          <mxGeometry x="-355" y="-21" width="40" height="40" as="geometry" />
        </mxCell>
        <mxCell id="bW3KZBtwqYJ7yQp_u8pl-92" value="" style="ellipse;whiteSpace=wrap;html=1;aspect=fixed;fillColor=#c4c6c8;" vertex="1" parent="1">
          <mxGeometry x="-355" y="-100" width="40" height="40" as="geometry" />
        </mxCell>
        <mxCell id="bW3KZBtwqYJ7yQp_u8pl-93" value="" style="ellipse;whiteSpace=wrap;html=1;aspect=fixed;fillColor=#c4c6c8;" vertex="1" parent="1">
          <mxGeometry x="-355" y="-180" width="40" height="40" as="geometry" />
        </mxCell>
        <mxCell id="bW3KZBtwqYJ7yQp_u8pl-94" value="" style="ellipse;whiteSpace=wrap;html=1;aspect=fixed;fillColor=#c4c6c8;" vertex="1" parent="1">
          <mxGeometry x="-355" y="-260" width="40" height="40" as="geometry" />
        </mxCell>
        <mxCell id="bW3KZBtwqYJ7yQp_u8pl-95" value="" style="ellipse;whiteSpace=wrap;html=1;aspect=fixed;fillColor=#c4c6c8;" vertex="1" parent="1">
          <mxGeometry x="-265" y="-221" width="40" height="40" as="geometry" />
        </mxCell>
        <mxCell id="bW3KZBtwqYJ7yQp_u8pl-96" value="" style="ellipse;whiteSpace=wrap;html=1;aspect=fixed;fillColor=#c4c6c8;" vertex="1" parent="1">
          <mxGeometry x="-265" y="-141" width="40" height="40" as="geometry" />
        </mxCell>
        <mxCell id="bW3KZBtwqYJ7yQp_u8pl-97" value="" style="endArrow=none;html=1;rounded=0;exitX=1;exitY=0.5;exitDx=0;exitDy=0;entryX=0;entryY=0.5;entryDx=0;entryDy=0;endFill=0;" edge="1" parent="1" source="bW3KZBtwqYJ7yQp_u8pl-90" target="bW3KZBtwqYJ7yQp_u8pl-87">
          <mxGeometry width="50" height="50" relative="1" as="geometry">
            <mxPoint x="-475" y="-221.5" as="sourcePoint" />
            <mxPoint x="-425" y="-271.5" as="targetPoint" />
          </mxGeometry>
        </mxCell>
        <mxCell id="bW3KZBtwqYJ7yQp_u8pl-98" value="" style="endArrow=none;html=1;rounded=0;exitX=1;exitY=0.5;exitDx=0;exitDy=0;entryX=0;entryY=0.5;entryDx=0;entryDy=0;endFill=0;" edge="1" parent="1" source="bW3KZBtwqYJ7yQp_u8pl-89" target="bW3KZBtwqYJ7yQp_u8pl-87">
          <mxGeometry width="50" height="50" relative="1" as="geometry">
            <mxPoint x="-475" y="-151.5" as="sourcePoint" />
            <mxPoint x="-455" y="-231.5" as="targetPoint" />
          </mxGeometry>
        </mxCell>
        <mxCell id="bW3KZBtwqYJ7yQp_u8pl-99" value="" style="endArrow=none;html=1;rounded=0;entryX=0;entryY=0.5;entryDx=0;entryDy=0;exitX=1;exitY=0.5;exitDx=0;exitDy=0;endFill=0;" edge="1" parent="1" source="bW3KZBtwqYJ7yQp_u8pl-90" target="bW3KZBtwqYJ7yQp_u8pl-86">
          <mxGeometry width="50" height="50" relative="1" as="geometry">
            <mxPoint x="-425" y="-121.5" as="sourcePoint" />
            <mxPoint x="-375" y="-171.5" as="targetPoint" />
          </mxGeometry>
        </mxCell>
        <mxCell id="bW3KZBtwqYJ7yQp_u8pl-100" value="" style="endArrow=none;html=1;rounded=0;exitX=1;exitY=0.5;exitDx=0;exitDy=0;entryX=0;entryY=0.5;entryDx=0;entryDy=0;endFill=0;" edge="1" parent="1" source="bW3KZBtwqYJ7yQp_u8pl-89" target="bW3KZBtwqYJ7yQp_u8pl-86">
          <mxGeometry width="50" height="50" relative="1" as="geometry">
            <mxPoint x="-475" y="-141.5" as="sourcePoint" />
            <mxPoint x="-435" y="-181.5" as="targetPoint" />
          </mxGeometry>
        </mxCell>
        <mxCell id="bW3KZBtwqYJ7yQp_u8pl-101" value="" style="endArrow=none;html=1;rounded=0;exitX=1;exitY=0.5;exitDx=0;exitDy=0;entryX=0;entryY=0.5;entryDx=0;entryDy=0;endFill=0;" edge="1" parent="1" source="bW3KZBtwqYJ7yQp_u8pl-90" target="bW3KZBtwqYJ7yQp_u8pl-84">
          <mxGeometry width="50" height="50" relative="1" as="geometry">
            <mxPoint x="-425" y="-221.5" as="sourcePoint" />
            <mxPoint x="-434.9999999999985" y="-31.5" as="targetPoint" />
          </mxGeometry>
        </mxCell>
        <mxCell id="bW3KZBtwqYJ7yQp_u8pl-102" value="" style="endArrow=none;html=1;rounded=0;exitX=1;exitY=0.5;exitDx=0;exitDy=0;entryX=0;entryY=0.5;entryDx=0;entryDy=0;endFill=0;" edge="1" parent="1" source="bW3KZBtwqYJ7yQp_u8pl-89" target="bW3KZBtwqYJ7yQp_u8pl-84">
          <mxGeometry width="50" height="50" relative="1" as="geometry">
            <mxPoint x="-375" y="-131.5" as="sourcePoint" />
            <mxPoint x="-434.9999999999985" y="-31.5" as="targetPoint" />
          </mxGeometry>
        </mxCell>
        <mxCell id="bW3KZBtwqYJ7yQp_u8pl-103" value="" style="endArrow=none;html=1;rounded=0;entryX=0;entryY=0.5;entryDx=0;entryDy=0;exitX=1;exitY=0.5;exitDx=0;exitDy=0;" edge="1" parent="1" source="bW3KZBtwqYJ7yQp_u8pl-87" target="bW3KZBtwqYJ7yQp_u8pl-93">
          <mxGeometry width="50" height="50" relative="1" as="geometry">
            <mxPoint x="-385" y="-230" as="sourcePoint" />
            <mxPoint x="-345" y="-230" as="targetPoint" />
          </mxGeometry>
        </mxCell>
        <mxCell id="bW3KZBtwqYJ7yQp_u8pl-104" value="" style="endArrow=none;html=1;rounded=0;entryX=0;entryY=0.5;entryDx=0;entryDy=0;exitX=1;exitY=0.5;exitDx=0;exitDy=0;" edge="1" parent="1" source="bW3KZBtwqYJ7yQp_u8pl-87" target="bW3KZBtwqYJ7yQp_u8pl-92">
          <mxGeometry width="50" height="50" relative="1" as="geometry">
            <mxPoint x="-375" y="-220" as="sourcePoint" />
            <mxPoint x="-335" y="-220" as="targetPoint" />
          </mxGeometry>
        </mxCell>
        <mxCell id="bW3KZBtwqYJ7yQp_u8pl-105" value="" style="endArrow=none;html=1;rounded=0;exitX=1;exitY=0.5;exitDx=0;exitDy=0;entryX=0;entryY=0.5;entryDx=0;entryDy=0;" edge="1" parent="1" source="bW3KZBtwqYJ7yQp_u8pl-86" target="bW3KZBtwqYJ7yQp_u8pl-93">
          <mxGeometry width="50" height="50" relative="1" as="geometry">
            <mxPoint x="-385" y="-160.5" as="sourcePoint" />
            <mxPoint x="-375" y="-160" as="targetPoint" />
          </mxGeometry>
        </mxCell>
        <mxCell id="bW3KZBtwqYJ7yQp_u8pl-106" value="" style="endArrow=none;html=1;rounded=0;entryX=0;entryY=0.5;entryDx=0;entryDy=0;exitX=1;exitY=0.5;exitDx=0;exitDy=0;" edge="1" parent="1" source="bW3KZBtwqYJ7yQp_u8pl-86" target="bW3KZBtwqYJ7yQp_u8pl-92">
          <mxGeometry width="50" height="50" relative="1" as="geometry">
            <mxPoint x="-385" y="-141" as="sourcePoint" />
            <mxPoint x="-345" y="-141" as="targetPoint" />
          </mxGeometry>
        </mxCell>
        <mxCell id="bW3KZBtwqYJ7yQp_u8pl-107" value="" style="endArrow=none;html=1;rounded=0;entryX=0;entryY=0.5;entryDx=0;entryDy=0;exitX=1;exitY=0.5;exitDx=0;exitDy=0;" edge="1" parent="1" target="bW3KZBtwqYJ7yQp_u8pl-93">
          <mxGeometry width="50" height="50" relative="1" as="geometry">
            <mxPoint x="-395.0000000000016" as="sourcePoint" />
            <mxPoint x="-345" y="-0.5" as="targetPoint" />
          </mxGeometry>
        </mxCell>
        <mxCell id="bW3KZBtwqYJ7yQp_u8pl-108" value="" style="endArrow=none;html=1;rounded=0;entryX=0;entryY=0.5;entryDx=0;entryDy=0;exitX=1;exitY=0.5;exitDx=0;exitDy=0;" edge="1" parent="1" target="bW3KZBtwqYJ7yQp_u8pl-92">
          <mxGeometry width="50" height="50" relative="1" as="geometry">
            <mxPoint x="-395.0000000000016" as="sourcePoint" />
            <mxPoint x="-345" y="-0.5" as="targetPoint" />
          </mxGeometry>
        </mxCell>
        <mxCell id="bW3KZBtwqYJ7yQp_u8pl-109" value="" style="endArrow=none;html=1;rounded=0;entryX=0;entryY=0.5;entryDx=0;entryDy=0;exitX=1;exitY=0.5;exitDx=0;exitDy=0;" edge="1" parent="1" source="bW3KZBtwqYJ7yQp_u8pl-93" target="bW3KZBtwqYJ7yQp_u8pl-95">
          <mxGeometry width="50" height="50" relative="1" as="geometry">
            <mxPoint x="-225" y="-120.5" as="sourcePoint" />
            <mxPoint x="-185" y="-120.5" as="targetPoint" />
          </mxGeometry>
        </mxCell>
        <mxCell id="bW3KZBtwqYJ7yQp_u8pl-110" value="" style="endArrow=none;html=1;rounded=0;entryX=0;entryY=0.5;entryDx=0;entryDy=0;exitX=1;exitY=0.5;exitDx=0;exitDy=0;" edge="1" parent="1" source="bW3KZBtwqYJ7yQp_u8pl-92" target="bW3KZBtwqYJ7yQp_u8pl-95">
          <mxGeometry width="50" height="50" relative="1" as="geometry">
            <mxPoint x="-300" y="-40.5" as="sourcePoint" />
            <mxPoint x="-260" y="-40.5" as="targetPoint" />
          </mxGeometry>
        </mxCell>
        <mxCell id="bW3KZBtwqYJ7yQp_u8pl-111" value="" style="ellipse;whiteSpace=wrap;html=1;aspect=fixed;fillColor=#c4c6c8;" vertex="1" parent="1">
          <mxGeometry x="-265" y="-61" width="40" height="40" as="geometry" />
        </mxCell>
        <mxCell id="bW3KZBtwqYJ7yQp_u8pl-112" value="" style="endArrow=none;html=1;rounded=0;entryX=1;entryY=0.5;entryDx=0;entryDy=0;exitX=0;exitY=0.5;exitDx=0;exitDy=0;" edge="1" parent="1" source="bW3KZBtwqYJ7yQp_u8pl-111" target="bW3KZBtwqYJ7yQp_u8pl-93">
          <mxGeometry width="50" height="50" relative="1" as="geometry">
            <mxPoint x="-375" y="-118" as="sourcePoint" />
            <mxPoint x="-325" y="-168" as="targetPoint" />
          </mxGeometry>
        </mxCell>
        <mxCell id="bW3KZBtwqYJ7yQp_u8pl-113" value="" style="endArrow=none;html=1;rounded=0;entryX=1;entryY=0.5;entryDx=0;entryDy=0;exitX=0;exitY=0.5;exitDx=0;exitDy=0;" edge="1" parent="1" source="bW3KZBtwqYJ7yQp_u8pl-111" target="bW3KZBtwqYJ7yQp_u8pl-92">
          <mxGeometry width="50" height="50" relative="1" as="geometry">
            <mxPoint x="-375" y="-118" as="sourcePoint" />
            <mxPoint x="-325" y="-168" as="targetPoint" />
          </mxGeometry>
        </mxCell>
        <mxCell id="bW3KZBtwqYJ7yQp_u8pl-114" value="" style="ellipse;whiteSpace=wrap;html=1;aspect=fixed;fillColor=#c4c6c8;" vertex="1" parent="1">
          <mxGeometry x="-515" y="-280.5" width="40" height="40" as="geometry" />
        </mxCell>
        <mxCell id="bW3KZBtwqYJ7yQp_u8pl-115" value="" style="ellipse;whiteSpace=wrap;html=1;aspect=fixed;fillColor=#c4c6c8;" vertex="1" parent="1">
          <mxGeometry x="-515" y="-140.5" width="40" height="40" as="geometry" />
        </mxCell>
        <mxCell id="bW3KZBtwqYJ7yQp_u8pl-116" value="" style="endArrow=none;html=1;rounded=0;exitX=1;exitY=0.5;exitDx=0;exitDy=0;entryX=0;entryY=0.5;entryDx=0;entryDy=0;" edge="1" parent="1" source="bW3KZBtwqYJ7yQp_u8pl-88" target="bW3KZBtwqYJ7yQp_u8pl-85">
          <mxGeometry width="50" height="50" relative="1" as="geometry">
            <mxPoint x="-445" y="9.5" as="sourcePoint" />
            <mxPoint x="-395" y="-40.5" as="targetPoint" />
          </mxGeometry>
        </mxCell>
        <mxCell id="bW3KZBtwqYJ7yQp_u8pl-117" value="" style="endArrow=none;html=1;rounded=0;exitX=1;exitY=0.5;exitDx=0;exitDy=0;entryX=0;entryY=0.5;entryDx=0;entryDy=0;" edge="1" parent="1" source="bW3KZBtwqYJ7yQp_u8pl-88" target="bW3KZBtwqYJ7yQp_u8pl-84">
          <mxGeometry width="50" height="50" relative="1" as="geometry">
            <mxPoint x="-465" y="29.5" as="sourcePoint" />
            <mxPoint x="-425" y="-69.5" as="targetPoint" />
          </mxGeometry>
        </mxCell>
        <mxCell id="bW3KZBtwqYJ7yQp_u8pl-118" value="" style="endArrow=none;html=1;rounded=0;exitX=1;exitY=0.5;exitDx=0;exitDy=0;entryX=0;entryY=0.5;entryDx=0;entryDy=0;" edge="1" parent="1" source="bW3KZBtwqYJ7yQp_u8pl-88" target="bW3KZBtwqYJ7yQp_u8pl-86">
          <mxGeometry width="50" height="50" relative="1" as="geometry">
            <mxPoint x="-455" y="39.5" as="sourcePoint" />
            <mxPoint x="-415" y="-59.5" as="targetPoint" />
          </mxGeometry>
        </mxCell>
        <mxCell id="bW3KZBtwqYJ7yQp_u8pl-119" value="" style="endArrow=none;html=1;rounded=0;exitX=1;exitY=0.5;exitDx=0;exitDy=0;entryX=0;entryY=0.5;entryDx=0;entryDy=0;" edge="1" parent="1" source="bW3KZBtwqYJ7yQp_u8pl-88" target="bW3KZBtwqYJ7yQp_u8pl-87">
          <mxGeometry width="50" height="50" relative="1" as="geometry">
            <mxPoint x="-458" y="-13.5" as="sourcePoint" />
            <mxPoint x="-418" y="-112.5" as="targetPoint" />
          </mxGeometry>
        </mxCell>
        <mxCell id="bW3KZBtwqYJ7yQp_u8pl-120" value="" style="endArrow=none;html=1;rounded=0;exitX=1;exitY=0.5;exitDx=0;exitDy=0;entryX=0;entryY=0.5;entryDx=0;entryDy=0;" edge="1" parent="1" source="bW3KZBtwqYJ7yQp_u8pl-89" target="bW3KZBtwqYJ7yQp_u8pl-85">
          <mxGeometry width="50" height="50" relative="1" as="geometry">
            <mxPoint x="-435" y="59.5" as="sourcePoint" />
            <mxPoint x="-395" y="-39.5" as="targetPoint" />
          </mxGeometry>
        </mxCell>
        <mxCell id="bW3KZBtwqYJ7yQp_u8pl-121" value="" style="endArrow=none;html=1;rounded=0;exitX=1;exitY=0.5;exitDx=0;exitDy=0;entryX=0;entryY=0.5;entryDx=0;entryDy=0;" edge="1" parent="1" source="bW3KZBtwqYJ7yQp_u8pl-115" target="bW3KZBtwqYJ7yQp_u8pl-85">
          <mxGeometry width="50" height="50" relative="1" as="geometry">
            <mxPoint x="-425" y="69.5" as="sourcePoint" />
            <mxPoint x="-385" y="-29.5" as="targetPoint" />
          </mxGeometry>
        </mxCell>
        <mxCell id="bW3KZBtwqYJ7yQp_u8pl-122" value="" style="endArrow=none;html=1;rounded=0;entryX=0;entryY=0.5;entryDx=0;entryDy=0;exitX=1;exitY=0.5;exitDx=0;exitDy=0;" edge="1" parent="1" source="bW3KZBtwqYJ7yQp_u8pl-90" target="bW3KZBtwqYJ7yQp_u8pl-85">
          <mxGeometry width="50" height="50" relative="1" as="geometry">
            <mxPoint x="-495" y="-80.5" as="sourcePoint" />
            <mxPoint x="-375" y="-19.5" as="targetPoint" />
          </mxGeometry>
        </mxCell>
        <mxCell id="bW3KZBtwqYJ7yQp_u8pl-123" value="" style="endArrow=none;html=1;rounded=0;entryX=0;entryY=0.5;entryDx=0;entryDy=0;exitX=1;exitY=0.5;exitDx=0;exitDy=0;" edge="1" parent="1" source="bW3KZBtwqYJ7yQp_u8pl-114" target="bW3KZBtwqYJ7yQp_u8pl-85">
          <mxGeometry width="50" height="50" relative="1" as="geometry">
            <mxPoint x="-485" y="-80.5" as="sourcePoint" />
            <mxPoint x="-365" y="-9.5" as="targetPoint" />
          </mxGeometry>
        </mxCell>
        <mxCell id="bW3KZBtwqYJ7yQp_u8pl-124" value="" style="endArrow=none;html=1;rounded=0;entryX=0;entryY=0.5;entryDx=0;entryDy=0;exitX=1;exitY=0.5;exitDx=0;exitDy=0;" edge="1" parent="1" source="bW3KZBtwqYJ7yQp_u8pl-114" target="bW3KZBtwqYJ7yQp_u8pl-84">
          <mxGeometry width="50" height="50" relative="1" as="geometry">
            <mxPoint x="-495" y="-90.5" as="sourcePoint" />
            <mxPoint x="-355" y="0.5" as="targetPoint" />
          </mxGeometry>
        </mxCell>
        <mxCell id="bW3KZBtwqYJ7yQp_u8pl-125" value="" style="endArrow=none;html=1;rounded=0;entryX=1;entryY=0.5;entryDx=0;entryDy=0;exitX=0;exitY=0.5;exitDx=0;exitDy=0;" edge="1" parent="1" source="bW3KZBtwqYJ7yQp_u8pl-87" target="bW3KZBtwqYJ7yQp_u8pl-114">
          <mxGeometry width="50" height="50" relative="1" as="geometry">
            <mxPoint x="-445" y="-130.5" as="sourcePoint" />
            <mxPoint x="-395" y="-180.5" as="targetPoint" />
          </mxGeometry>
        </mxCell>
        <mxCell id="bW3KZBtwqYJ7yQp_u8pl-127" value="" style="endArrow=none;html=1;rounded=0;entryX=1;entryY=0.5;entryDx=0;entryDy=0;exitX=0;exitY=0.5;exitDx=0;exitDy=0;" edge="1" parent="1" source="bW3KZBtwqYJ7yQp_u8pl-86" target="bW3KZBtwqYJ7yQp_u8pl-114">
          <mxGeometry width="50" height="50" relative="1" as="geometry">
            <mxPoint x="-415" y="-219.5" as="sourcePoint" />
            <mxPoint x="-455" y="-240.5" as="targetPoint" />
          </mxGeometry>
        </mxCell>
        <mxCell id="bW3KZBtwqYJ7yQp_u8pl-128" value="" style="endArrow=none;html=1;rounded=0;entryX=1;entryY=0.5;entryDx=0;entryDy=0;exitX=0;exitY=0.5;exitDx=0;exitDy=0;" edge="1" parent="1" source="bW3KZBtwqYJ7yQp_u8pl-86" target="bW3KZBtwqYJ7yQp_u8pl-115">
          <mxGeometry width="50" height="50" relative="1" as="geometry">
            <mxPoint x="-405" y="-209.5" as="sourcePoint" />
            <mxPoint x="-445" y="-230.5" as="targetPoint" />
          </mxGeometry>
        </mxCell>
        <mxCell id="bW3KZBtwqYJ7yQp_u8pl-129" value="" style="endArrow=none;html=1;rounded=0;entryX=1;entryY=0.5;entryDx=0;entryDy=0;exitX=0;exitY=0.5;exitDx=0;exitDy=0;" edge="1" parent="1" source="bW3KZBtwqYJ7yQp_u8pl-84" target="bW3KZBtwqYJ7yQp_u8pl-115">
          <mxGeometry width="50" height="50" relative="1" as="geometry">
            <mxPoint x="-395" y="-199.5" as="sourcePoint" />
            <mxPoint x="-435" y="-220.5" as="targetPoint" />
          </mxGeometry>
        </mxCell>
        <mxCell id="bW3KZBtwqYJ7yQp_u8pl-130" value="" style="endArrow=none;html=1;rounded=0;entryX=1;entryY=0.5;entryDx=0;entryDy=0;exitX=0;exitY=0.5;exitDx=0;exitDy=0;" edge="1" parent="1" source="bW3KZBtwqYJ7yQp_u8pl-87" target="bW3KZBtwqYJ7yQp_u8pl-115">
          <mxGeometry width="50" height="50" relative="1" as="geometry">
            <mxPoint x="-385" y="-189.5" as="sourcePoint" />
            <mxPoint x="-425" y="-210.5" as="targetPoint" />
          </mxGeometry>
        </mxCell>
        <mxCell id="bW3KZBtwqYJ7yQp_u8pl-131" value="" style="endArrow=none;html=1;rounded=0;entryX=1;entryY=0.5;entryDx=0;entryDy=0;exitX=0;exitY=0.5;exitDx=0;exitDy=0;" edge="1" parent="1" source="bW3KZBtwqYJ7yQp_u8pl-94" target="bW3KZBtwqYJ7yQp_u8pl-87">
          <mxGeometry width="50" height="50" relative="1" as="geometry">
            <mxPoint x="-375" y="-179.5" as="sourcePoint" />
            <mxPoint x="-415" y="-200.5" as="targetPoint" />
          </mxGeometry>
        </mxCell>
        <mxCell id="bW3KZBtwqYJ7yQp_u8pl-132" value="" style="endArrow=none;html=1;rounded=0;entryX=1;entryY=0.5;entryDx=0;entryDy=0;exitX=0;exitY=0.5;exitDx=0;exitDy=0;" edge="1" parent="1" source="bW3KZBtwqYJ7yQp_u8pl-93" target="bW3KZBtwqYJ7yQp_u8pl-87">
          <mxGeometry width="50" height="50" relative="1" as="geometry">
            <mxPoint x="-365" y="-169.5" as="sourcePoint" />
            <mxPoint x="-405" y="-190.5" as="targetPoint" />
          </mxGeometry>
        </mxCell>
        <mxCell id="bW3KZBtwqYJ7yQp_u8pl-133" value="" style="endArrow=none;html=1;rounded=0;entryX=1;entryY=0.5;entryDx=0;entryDy=0;exitX=0;exitY=0.5;exitDx=0;exitDy=0;" edge="1" parent="1" source="bW3KZBtwqYJ7yQp_u8pl-92" target="bW3KZBtwqYJ7yQp_u8pl-86">
          <mxGeometry width="50" height="50" relative="1" as="geometry">
            <mxPoint x="-355" y="-159.5" as="sourcePoint" />
            <mxPoint x="-395" y="-180.5" as="targetPoint" />
          </mxGeometry>
        </mxCell>
        <mxCell id="bW3KZBtwqYJ7yQp_u8pl-134" value="" style="endArrow=none;html=1;rounded=0;entryX=1;entryY=0.5;entryDx=0;entryDy=0;exitX=0;exitY=0.5;exitDx=0;exitDy=0;" edge="1" parent="1" source="bW3KZBtwqYJ7yQp_u8pl-91" target="bW3KZBtwqYJ7yQp_u8pl-85">
          <mxGeometry width="50" height="50" relative="1" as="geometry">
            <mxPoint x="-345" y="-149.5" as="sourcePoint" />
            <mxPoint x="-385" y="-170.5" as="targetPoint" />
          </mxGeometry>
        </mxCell>
        <mxCell id="bW3KZBtwqYJ7yQp_u8pl-135" value="" style="endArrow=none;html=1;rounded=0;entryX=1;entryY=0.5;entryDx=0;entryDy=0;exitX=0;exitY=0.5;exitDx=0;exitDy=0;" edge="1" parent="1" source="bW3KZBtwqYJ7yQp_u8pl-92" target="bW3KZBtwqYJ7yQp_u8pl-85">
          <mxGeometry width="50" height="50" relative="1" as="geometry">
            <mxPoint x="-335" y="-139.5" as="sourcePoint" />
            <mxPoint x="-375" y="-160.5" as="targetPoint" />
          </mxGeometry>
        </mxCell>
        <mxCell id="bW3KZBtwqYJ7yQp_u8pl-136" value="" style="endArrow=none;html=1;rounded=0;entryX=1;entryY=0.5;entryDx=0;entryDy=0;exitX=0;exitY=0.5;exitDx=0;exitDy=0;" edge="1" parent="1" source="bW3KZBtwqYJ7yQp_u8pl-93" target="bW3KZBtwqYJ7yQp_u8pl-85">
          <mxGeometry width="50" height="50" relative="1" as="geometry">
            <mxPoint x="-325" y="-129.5" as="sourcePoint" />
            <mxPoint x="-365" y="-150.5" as="targetPoint" />
          </mxGeometry>
        </mxCell>
        <mxCell id="bW3KZBtwqYJ7yQp_u8pl-137" value="" style="endArrow=none;html=1;rounded=0;entryX=1;entryY=0.5;entryDx=0;entryDy=0;exitX=0;exitY=0.5;exitDx=0;exitDy=0;" edge="1" parent="1" source="bW3KZBtwqYJ7yQp_u8pl-94" target="bW3KZBtwqYJ7yQp_u8pl-85">
          <mxGeometry width="50" height="50" relative="1" as="geometry">
            <mxPoint x="-315" y="-119.5" as="sourcePoint" />
            <mxPoint x="-355" y="-140.5" as="targetPoint" />
          </mxGeometry>
        </mxCell>
        <mxCell id="bW3KZBtwqYJ7yQp_u8pl-138" value="" style="endArrow=none;html=1;rounded=0;entryX=1;entryY=0.5;entryDx=0;entryDy=0;exitX=0;exitY=0.5;exitDx=0;exitDy=0;" edge="1" parent="1" source="bW3KZBtwqYJ7yQp_u8pl-91" target="bW3KZBtwqYJ7yQp_u8pl-87">
          <mxGeometry width="50" height="50" relative="1" as="geometry">
            <mxPoint x="-305" y="-109.5" as="sourcePoint" />
            <mxPoint x="-345" y="-130.5" as="targetPoint" />
          </mxGeometry>
        </mxCell>
        <mxCell id="bW3KZBtwqYJ7yQp_u8pl-139" value="" style="endArrow=none;html=1;rounded=0;entryX=1;entryY=0.5;entryDx=0;entryDy=0;exitX=0;exitY=0.5;exitDx=0;exitDy=0;" edge="1" parent="1" source="bW3KZBtwqYJ7yQp_u8pl-94" target="bW3KZBtwqYJ7yQp_u8pl-86">
          <mxGeometry width="50" height="50" relative="1" as="geometry">
            <mxPoint x="-295" y="-99.5" as="sourcePoint" />
            <mxPoint x="-335" y="-120.5" as="targetPoint" />
          </mxGeometry>
        </mxCell>
        <mxCell id="bW3KZBtwqYJ7yQp_u8pl-140" value="" style="endArrow=none;html=1;rounded=0;entryX=1;entryY=0.5;entryDx=0;entryDy=0;exitX=0;exitY=0.5;exitDx=0;exitDy=0;" edge="1" parent="1" source="bW3KZBtwqYJ7yQp_u8pl-94" target="bW3KZBtwqYJ7yQp_u8pl-84">
          <mxGeometry width="50" height="50" relative="1" as="geometry">
            <mxPoint x="-285" y="-89.5" as="sourcePoint" />
            <mxPoint x="-325" y="-110.5" as="targetPoint" />
          </mxGeometry>
        </mxCell>
        <mxCell id="bW3KZBtwqYJ7yQp_u8pl-141" value="" style="endArrow=none;html=1;rounded=0;entryX=1;entryY=0.5;entryDx=0;entryDy=0;exitX=0;exitY=0.5;exitDx=0;exitDy=0;" edge="1" parent="1" source="bW3KZBtwqYJ7yQp_u8pl-91" target="bW3KZBtwqYJ7yQp_u8pl-86">
          <mxGeometry width="50" height="50" relative="1" as="geometry">
            <mxPoint x="-275" y="-79.5" as="sourcePoint" />
            <mxPoint x="-315" y="-100.5" as="targetPoint" />
          </mxGeometry>
        </mxCell>
        <mxCell id="bW3KZBtwqYJ7yQp_u8pl-142" value="" style="endArrow=none;html=1;rounded=0;entryX=1;entryY=0.5;entryDx=0;entryDy=0;exitX=0;exitY=0.5;exitDx=0;exitDy=0;" edge="1" parent="1" source="bW3KZBtwqYJ7yQp_u8pl-91" target="bW3KZBtwqYJ7yQp_u8pl-84">
          <mxGeometry width="50" height="50" relative="1" as="geometry">
            <mxPoint x="-265" y="-69.5" as="sourcePoint" />
            <mxPoint x="-305" y="-90.5" as="targetPoint" />
          </mxGeometry>
        </mxCell>
        <mxCell id="bW3KZBtwqYJ7yQp_u8pl-143" value="" style="endArrow=none;html=1;rounded=0;entryX=1;entryY=0.5;entryDx=0;entryDy=0;exitX=0;exitY=0.5;exitDx=0;exitDy=0;" edge="1" parent="1" source="bW3KZBtwqYJ7yQp_u8pl-95" target="bW3KZBtwqYJ7yQp_u8pl-94">
          <mxGeometry width="50" height="50" relative="1" as="geometry">
            <mxPoint x="-255" y="-59.5" as="sourcePoint" />
            <mxPoint x="-295" y="-80.5" as="targetPoint" />
          </mxGeometry>
        </mxCell>
        <mxCell id="bW3KZBtwqYJ7yQp_u8pl-144" value="" style="endArrow=none;html=1;rounded=0;entryX=1;entryY=0.5;entryDx=0;entryDy=0;exitX=0;exitY=0.5;exitDx=0;exitDy=0;" edge="1" parent="1" source="bW3KZBtwqYJ7yQp_u8pl-96" target="bW3KZBtwqYJ7yQp_u8pl-94">
          <mxGeometry width="50" height="50" relative="1" as="geometry">
            <mxPoint x="-245" y="-49.5" as="sourcePoint" />
            <mxPoint x="-285" y="-70.5" as="targetPoint" />
          </mxGeometry>
        </mxCell>
        <mxCell id="bW3KZBtwqYJ7yQp_u8pl-145" value="" style="endArrow=none;html=1;rounded=0;entryX=1;entryY=0.5;entryDx=0;entryDy=0;exitX=0;exitY=0.5;exitDx=0;exitDy=0;" edge="1" parent="1" source="bW3KZBtwqYJ7yQp_u8pl-111" target="bW3KZBtwqYJ7yQp_u8pl-94">
          <mxGeometry width="50" height="50" relative="1" as="geometry">
            <mxPoint x="-235" y="-39.5" as="sourcePoint" />
            <mxPoint x="-275" y="-60.5" as="targetPoint" />
          </mxGeometry>
        </mxCell>
        <mxCell id="bW3KZBtwqYJ7yQp_u8pl-146" value="" style="endArrow=none;html=1;rounded=0;entryX=1;entryY=0.5;entryDx=0;entryDy=0;exitX=0;exitY=0.5;exitDx=0;exitDy=0;" edge="1" parent="1" source="bW3KZBtwqYJ7yQp_u8pl-96" target="bW3KZBtwqYJ7yQp_u8pl-93">
          <mxGeometry width="50" height="50" relative="1" as="geometry">
            <mxPoint x="-225" y="-29.5" as="sourcePoint" />
            <mxPoint x="-265" y="-50.5" as="targetPoint" />
          </mxGeometry>
        </mxCell>
        <mxCell id="bW3KZBtwqYJ7yQp_u8pl-147" value="" style="endArrow=none;html=1;rounded=0;entryX=1;entryY=0.5;entryDx=0;entryDy=0;exitX=0;exitY=0.5;exitDx=0;exitDy=0;" edge="1" parent="1" source="bW3KZBtwqYJ7yQp_u8pl-96" target="bW3KZBtwqYJ7yQp_u8pl-92">
          <mxGeometry width="50" height="50" relative="1" as="geometry">
            <mxPoint x="-215" y="-19.5" as="sourcePoint" />
            <mxPoint x="-255" y="-40.5" as="targetPoint" />
          </mxGeometry>
        </mxCell>
        <mxCell id="bW3KZBtwqYJ7yQp_u8pl-148" value="" style="endArrow=none;html=1;rounded=0;entryX=1;entryY=0.5;entryDx=0;entryDy=0;exitX=0;exitY=0.5;exitDx=0;exitDy=0;" edge="1" parent="1" source="bW3KZBtwqYJ7yQp_u8pl-95" target="bW3KZBtwqYJ7yQp_u8pl-91">
          <mxGeometry width="50" height="50" relative="1" as="geometry">
            <mxPoint x="-205" y="-9.5" as="sourcePoint" />
            <mxPoint x="-245" y="-30.5" as="targetPoint" />
          </mxGeometry>
        </mxCell>
        <mxCell id="bW3KZBtwqYJ7yQp_u8pl-149" value="" style="endArrow=none;html=1;rounded=0;entryX=1;entryY=0.5;entryDx=0;entryDy=0;exitX=0;exitY=0.5;exitDx=0;exitDy=0;" edge="1" parent="1" source="bW3KZBtwqYJ7yQp_u8pl-96" target="bW3KZBtwqYJ7yQp_u8pl-91">
          <mxGeometry width="50" height="50" relative="1" as="geometry">
            <mxPoint x="-195" y="0.5" as="sourcePoint" />
            <mxPoint x="-235" y="-20.5" as="targetPoint" />
          </mxGeometry>
        </mxCell>
        <mxCell id="bW3KZBtwqYJ7yQp_u8pl-150" value="" style="endArrow=none;html=1;rounded=0;entryX=1;entryY=0.5;entryDx=0;entryDy=0;exitX=0;exitY=0.5;exitDx=0;exitDy=0;" edge="1" parent="1" source="bW3KZBtwqYJ7yQp_u8pl-111" target="bW3KZBtwqYJ7yQp_u8pl-91">
          <mxGeometry width="50" height="50" relative="1" as="geometry">
            <mxPoint x="-185" y="10.5" as="sourcePoint" />
            <mxPoint x="-225" y="-10.5" as="targetPoint" />
          </mxGeometry>
        </mxCell>
        <mxCell id="bW3KZBtwqYJ7yQp_u8pl-151" value="&lt;font style=&quot;font-size: 14px;&quot;&gt;$$\text{Dropout}$$&lt;/font&gt;" style="text;html=1;align=center;verticalAlign=middle;resizable=0;points=[];autosize=1;strokeColor=none;fillColor=none;" vertex="1" parent="1">
          <mxGeometry x="-257.5" y="-176" width="140" height="30" as="geometry" />
        </mxCell>
        <mxCell id="bW3KZBtwqYJ7yQp_u8pl-154" value="" style="shape=flexArrow;endArrow=classic;html=1;rounded=0;width=31.30434782608696;endSize=7.130434782608695;strokeWidth=2;" edge="1" parent="1">
          <mxGeometry width="50" height="50" relative="1" as="geometry">
            <mxPoint x="-200.16000000000005" y="-120.53000000000003" as="sourcePoint" />
            <mxPoint x="-164.84000000000006" y="-120.52999999999997" as="targetPoint" />
          </mxGeometry>
        </mxCell>
        <mxCell id="bW3KZBtwqYJ7yQp_u8pl-159" value="" style="group" vertex="1" connectable="0" parent="1">
          <mxGeometry x="110" y="-140.5" width="40" height="40" as="geometry" />
        </mxCell>
        <mxCell id="bW3KZBtwqYJ7yQp_u8pl-157" value="" style="endArrow=none;html=1;rounded=0;strokeWidth=2;fillColor=#f8cecc;strokeColor=#000000;" edge="1" parent="bW3KZBtwqYJ7yQp_u8pl-159">
          <mxGeometry width="50" height="50" relative="1" as="geometry">
            <mxPoint y="39.6039603960396" as="sourcePoint" />
            <mxPoint x="40" as="targetPoint" />
          </mxGeometry>
        </mxCell>
        <mxCell id="bW3KZBtwqYJ7yQp_u8pl-158" value="" style="endArrow=none;html=1;rounded=0;strokeWidth=2;fillColor=#f8cecc;strokeColor=#000000;" edge="1" parent="bW3KZBtwqYJ7yQp_u8pl-159">
          <mxGeometry width="50" height="50" relative="1" as="geometry">
            <mxPoint x="40" y="40" as="sourcePoint" />
            <mxPoint y="0.396039603960396" as="targetPoint" />
          </mxGeometry>
        </mxCell>
        <mxCell id="bW3KZBtwqYJ7yQp_u8pl-161" value="" style="group" vertex="1" connectable="0" parent="1">
          <mxGeometry x="20" y="-20" width="40" height="40" as="geometry" />
        </mxCell>
        <mxCell id="bW3KZBtwqYJ7yQp_u8pl-162" value="" style="endArrow=none;html=1;rounded=0;strokeWidth=2;fillColor=#f8cecc;strokeColor=#000000;" edge="1" parent="bW3KZBtwqYJ7yQp_u8pl-161">
          <mxGeometry width="50" height="50" relative="1" as="geometry">
            <mxPoint y="39.6039603960396" as="sourcePoint" />
            <mxPoint x="40" as="targetPoint" />
          </mxGeometry>
        </mxCell>
        <mxCell id="bW3KZBtwqYJ7yQp_u8pl-163" value="" style="endArrow=none;html=1;rounded=0;strokeWidth=2;fillColor=#f8cecc;strokeColor=#000000;" edge="1" parent="bW3KZBtwqYJ7yQp_u8pl-161">
          <mxGeometry width="50" height="50" relative="1" as="geometry">
            <mxPoint x="40" y="40" as="sourcePoint" />
            <mxPoint y="0.396039603960396" as="targetPoint" />
          </mxGeometry>
        </mxCell>
        <mxCell id="bW3KZBtwqYJ7yQp_u8pl-164" value="" style="group" vertex="1" connectable="0" parent="1">
          <mxGeometry x="-140" width="40" height="40" as="geometry" />
        </mxCell>
        <mxCell id="bW3KZBtwqYJ7yQp_u8pl-165" value="" style="endArrow=none;html=1;rounded=0;strokeWidth=2;fillColor=#f8cecc;strokeColor=#000000;" edge="1" parent="bW3KZBtwqYJ7yQp_u8pl-164">
          <mxGeometry width="50" height="50" relative="1" as="geometry">
            <mxPoint y="39.6039603960396" as="sourcePoint" />
            <mxPoint x="40" as="targetPoint" />
          </mxGeometry>
        </mxCell>
        <mxCell id="bW3KZBtwqYJ7yQp_u8pl-166" value="" style="endArrow=none;html=1;rounded=0;strokeWidth=2;fillColor=#f8cecc;strokeColor=#000000;" edge="1" parent="bW3KZBtwqYJ7yQp_u8pl-164">
          <mxGeometry width="50" height="50" relative="1" as="geometry">
            <mxPoint x="40" y="40" as="sourcePoint" />
            <mxPoint y="0.396039603960396" as="targetPoint" />
          </mxGeometry>
        </mxCell>
        <mxCell id="bW3KZBtwqYJ7yQp_u8pl-167" value="" style="group" vertex="1" connectable="0" parent="1">
          <mxGeometry x="-140" y="-141" width="40" height="40" as="geometry" />
        </mxCell>
        <mxCell id="bW3KZBtwqYJ7yQp_u8pl-168" value="" style="endArrow=none;html=1;rounded=0;strokeWidth=2;fillColor=#f8cecc;strokeColor=#000000;" edge="1" parent="bW3KZBtwqYJ7yQp_u8pl-167">
          <mxGeometry width="50" height="50" relative="1" as="geometry">
            <mxPoint y="39.6039603960396" as="sourcePoint" />
            <mxPoint x="40" as="targetPoint" />
          </mxGeometry>
        </mxCell>
        <mxCell id="bW3KZBtwqYJ7yQp_u8pl-169" value="" style="endArrow=none;html=1;rounded=0;strokeWidth=2;fillColor=#f8cecc;strokeColor=#000000;" edge="1" parent="bW3KZBtwqYJ7yQp_u8pl-167">
          <mxGeometry width="50" height="50" relative="1" as="geometry">
            <mxPoint x="40" y="40" as="sourcePoint" />
            <mxPoint y="0.396039603960396" as="targetPoint" />
          </mxGeometry>
        </mxCell>
        <mxCell id="bW3KZBtwqYJ7yQp_u8pl-170" value="" style="group" vertex="1" connectable="0" parent="1">
          <mxGeometry x="-60" y="-99.5" width="40" height="40" as="geometry" />
        </mxCell>
        <mxCell id="bW3KZBtwqYJ7yQp_u8pl-171" value="" style="endArrow=none;html=1;rounded=0;strokeWidth=2;fillColor=#f8cecc;strokeColor=#000000;" edge="1" parent="bW3KZBtwqYJ7yQp_u8pl-170">
          <mxGeometry width="50" height="50" relative="1" as="geometry">
            <mxPoint y="39.6039603960396" as="sourcePoint" />
            <mxPoint x="40" as="targetPoint" />
          </mxGeometry>
        </mxCell>
        <mxCell id="bW3KZBtwqYJ7yQp_u8pl-172" value="" style="endArrow=none;html=1;rounded=0;strokeWidth=2;fillColor=#f8cecc;strokeColor=#000000;" edge="1" parent="bW3KZBtwqYJ7yQp_u8pl-170">
          <mxGeometry width="50" height="50" relative="1" as="geometry">
            <mxPoint x="40" y="40" as="sourcePoint" />
            <mxPoint y="0.396039603960396" as="targetPoint" />
          </mxGeometry>
        </mxCell>
        <mxCell id="bW3KZBtwqYJ7yQp_u8pl-173" value="" style="group" vertex="1" connectable="0" parent="1">
          <mxGeometry x="-140" y="-280.5" width="40" height="40" as="geometry" />
        </mxCell>
        <mxCell id="bW3KZBtwqYJ7yQp_u8pl-174" value="" style="endArrow=none;html=1;rounded=0;strokeWidth=2;fillColor=#f8cecc;strokeColor=#000000;" edge="1" parent="bW3KZBtwqYJ7yQp_u8pl-173">
          <mxGeometry width="50" height="50" relative="1" as="geometry">
            <mxPoint y="39.6039603960396" as="sourcePoint" />
            <mxPoint x="40" as="targetPoint" />
          </mxGeometry>
        </mxCell>
        <mxCell id="bW3KZBtwqYJ7yQp_u8pl-175" value="" style="endArrow=none;html=1;rounded=0;strokeWidth=2;fillColor=#f8cecc;strokeColor=#000000;" edge="1" parent="bW3KZBtwqYJ7yQp_u8pl-173">
          <mxGeometry width="50" height="50" relative="1" as="geometry">
            <mxPoint x="40" y="40" as="sourcePoint" />
            <mxPoint y="0.396039603960396" as="targetPoint" />
          </mxGeometry>
        </mxCell>
        <mxCell id="bW3KZBtwqYJ7yQp_u8pl-176" value="" style="group" vertex="1" connectable="0" parent="1">
          <mxGeometry x="20" y="-259.5" width="40" height="40" as="geometry" />
        </mxCell>
        <mxCell id="bW3KZBtwqYJ7yQp_u8pl-177" value="" style="endArrow=none;html=1;rounded=0;strokeWidth=2;fillColor=#f8cecc;strokeColor=#000000;" edge="1" parent="bW3KZBtwqYJ7yQp_u8pl-176">
          <mxGeometry width="50" height="50" relative="1" as="geometry">
            <mxPoint y="39.6039603960396" as="sourcePoint" />
            <mxPoint x="40" as="targetPoint" />
          </mxGeometry>
        </mxCell>
        <mxCell id="bW3KZBtwqYJ7yQp_u8pl-178" value="" style="endArrow=none;html=1;rounded=0;strokeWidth=2;fillColor=#f8cecc;strokeColor=#000000;" edge="1" parent="bW3KZBtwqYJ7yQp_u8pl-176">
          <mxGeometry width="50" height="50" relative="1" as="geometry">
            <mxPoint x="40" y="40" as="sourcePoint" />
            <mxPoint y="0.396039603960396" as="targetPoint" />
          </mxGeometry>
        </mxCell>
      </root>
    </mxGraphModel>
  </diagram>
</mxfile>
